<svg width="96" height="84" viewBox="0 0 96 84" fill="none" xmlns="http://www.w3.org/2000/svg">
<path d="M94.5928 63.0746C95.3694 63.0746 95.9991 62.4451 95.9991 61.6683V58.9487C95.9991 56.1994 93.8998 53.9627 91.3197 53.9627H89.0438V51.0813C89.0438 49.0651 87.4034 47.4249 85.3874 47.4249H74.0682C72.052 47.4249 70.4118 49.0653 70.4118 51.0813V58.5851C60.3002 57.4056 47.7137 57.4037 37.5851 58.5851V51.0813C37.5851 49.0651 35.9447 47.4249 33.9287 47.4249H33.0343C40.7433 42.7305 49.3646 36.3648 56.0866 30.1651L60.5007 36.2333C61.6883 37.8664 63.9812 38.2232 65.6085 37.0396L74.7623 30.3815C74.7623 30.3815 74.7623 30.3815 74.7623 30.3813C76.3926 29.1956 76.7543 26.9042 75.5684 25.2735L73.8734 22.9433L75.7139 21.6047C77.8005 20.0868 78.1825 17.0433 76.5653 14.82L68.9323 4.3259C67.3149 2.10292 64.302 1.52862 62.2153 3.04641L60.3747 4.38533L58.6799 2.0553C57.4941 0.424445 55.2027 0.0631364 53.5721 1.24887L44.4182 7.90692C42.7879 9.09265 42.4263 11.3841 43.6122 13.0147L48.0261 19.0829C39.1526 24.0784 28.975 31.4791 21.4792 38.3924L18.2323 33.929C16.4038 31.4152 12.8661 30.8565 10.3527 32.6853L4.40791 37.0092C1.89282 38.839 1.33501 42.3737 3.16443 44.889L3.69205 45.6144L1.85176 46.9529C-0.27653 48.5007 -0.583839 51.5598 1.00033 53.7377L8.63336 64.2314C9.46848 65.3798 10.6925 66.1101 11.9978 66.3042V71.925C11.9978 74.6743 14.097 76.9111 16.6772 76.9111H18.9531V79.7924C18.9531 81.8086 20.5935 83.4488 22.6094 83.4488H33.9287C35.9448 83.4488 37.5851 81.8084 37.5851 79.7924V72.2893C41.5816 72.7543 46.0742 73.0466 50.6887 73.1394C50.6985 73.1398 50.708 73.1398 50.7176 73.1398C51.4811 73.1398 52.1077 72.5286 52.1233 71.7617C52.1388 70.9853 51.522 70.3431 50.7453 70.3275C46.0926 70.2338 41.5726 69.9343 37.5851 69.4575V61.416C47.5331 60.2237 60.2573 60.1989 70.4118 61.416V69.4575C66.4247 69.9343 61.9045 70.2338 57.2515 70.3275C56.4751 70.3431 55.858 70.9853 55.8736 71.7615C55.8892 72.5286 56.5154 73.1398 57.2793 73.1398C57.2888 73.1398 57.2986 73.1398 57.3082 73.1394C61.9228 73.0466 66.4155 72.7543 70.4118 72.2893V79.7924C70.4118 81.8086 72.0522 83.4488 74.0682 83.4488H85.3874C87.4036 83.4488 89.0438 81.8084 89.0438 79.7924V76.9111H91.3197C93.8998 76.9111 95.9991 74.6743 95.9991 71.925V68.2313C95.9991 67.4545 95.3694 66.8251 94.5928 66.8251C93.8162 66.8251 93.1866 67.4545 93.1866 68.2313V71.925C93.1866 73.1031 92.3318 74.0985 91.3199 74.0985H89.044V56.7756H91.3199C92.3316 56.7756 93.1866 57.7708 93.1866 58.9489V61.6685C93.1864 62.4451 93.8162 63.0746 94.5928 63.0746ZM63.8696 5.32095C64.6877 4.72621 65.9649 5.02789 66.6575 5.98056L74.2906 16.4746C74.9836 17.4271 74.8776 18.7351 74.0594 19.3302L72.2189 20.6688C71.0795 19.1017 63.1873 8.25172 62.0292 6.65949L63.8696 5.32095ZM45.8867 11.3606C45.6179 10.9907 45.703 10.4509 46.0727 10.1818L55.2266 3.52359C55.598 3.25379 56.137 3.34097 56.4052 3.70978C56.9744 4.49239 70.0921 22.5267 70.7714 23.4608C70.7718 23.4612 70.772 23.4615 70.7724 23.4619L73.2936 26.928C73.5627 27.2979 73.4776 27.8377 73.1076 28.1068L63.9536 34.765C63.582 35.035 63.0476 34.9537 62.7752 34.5788C62.2204 33.8163 46.5563 12.2811 45.8867 11.3606ZM49.6912 21.3726L54.4216 27.8758C47.1053 34.6662 36.8428 42.1729 27.8742 47.1841L23.1446 40.6819C30.4412 33.9093 40.7099 26.3908 49.6912 21.3726ZM11.9978 58.9487V63.4126C11.5795 63.2568 11.1929 62.9684 10.9083 62.5769L3.27524 52.0831C2.55056 51.0871 2.71256 49.805 3.50642 49.2275L5.34671 47.8889C5.56984 48.1959 7.31675 50.5973 12.2406 57.3669C12.073 57.8996 11.9978 58.4494 11.9978 58.9487ZM18.9531 74.0983H16.6772C15.6655 74.0983 14.8105 73.1031 14.8105 71.9248C14.8105 70.6543 14.8105 60.273 14.8105 58.9485C14.8105 58.4572 14.9727 57.9268 15.2938 57.5102C15.6763 57.0131 16.1936 56.7752 16.6772 56.7752H18.9529L18.9531 74.0983ZM18.9531 51.0811V53.9625H16.6772C16.563 53.9625 16.45 53.9684 16.3376 53.9772C16.3178 53.9787 16.2979 53.9802 16.278 53.982C15.4073 54.0608 14.604 54.3944 13.9341 54.9128L5.43915 43.2341C4.52191 41.9734 4.80147 40.201 6.06239 39.2837L12.0072 34.9598C13.2625 34.0462 15.0439 34.3268 15.9576 35.5833C16.9815 36.9908 23.4749 45.9181 24.5707 47.4245H22.6093C20.5935 47.4245 18.9531 49.0649 18.9531 51.0811ZM34.7726 79.7922C34.7726 80.2495 34.3862 80.636 33.9289 80.636H22.6096C22.1523 80.636 21.7659 80.2495 21.7659 79.7922C21.7659 78.4687 21.7659 51.9441 21.7659 51.0813C21.7659 50.624 22.1523 50.2375 22.6096 50.2375C25.4714 50.2375 27.0515 50.2375 27.874 50.2375C28.4669 50.2375 28.6664 50.2375 28.6681 50.2375C29.4902 50.2375 31.0693 50.2375 33.9289 50.2375C34.3862 50.2375 34.7726 50.624 34.7726 51.0813C34.7726 52.8214 34.7726 78.7222 34.7726 79.7922ZM86.2314 79.7922C86.2314 80.2495 85.8449 80.636 85.3876 80.636H74.0684C73.6111 80.636 73.2246 80.2495 73.2246 79.7922V51.0813C73.2246 50.624 73.6111 50.2375 74.0684 50.2375H85.3876C85.8449 50.2375 86.2314 50.624 86.2314 51.0813C86.2314 52.8134 86.2314 78.863 86.2314 79.7922Z" fill="black"/>
</svg>
