<svg width="93" height="106" viewBox="0 0 93 106" fill="none" xmlns="http://www.w3.org/2000/svg">
<path d="M20.0856 39.582L23.5488 41.822C24.1441 42.207 24.9416 41.9865 25.2548 41.3509L28.811 34.1309" stroke="black" stroke-width="2.55859" stroke-miterlimit="10" stroke-linecap="round" stroke-linejoin="round"/>
<path d="M23.2064 59.8859L26.6697 62.1261C27.2649 62.5109 28.0625 62.2906 28.3757 61.655L31.9318 54.4349" stroke="black" stroke-width="2.55859" stroke-miterlimit="10" stroke-linecap="round" stroke-linejoin="round"/>
<path d="M26.2855 79.9173L29.7487 82.1573C30.344 82.5423 31.1416 82.3219 31.4548 81.6862L35.0109 74.4663" stroke="black" stroke-width="2.55859" stroke-miterlimit="10" stroke-linecap="round" stroke-linejoin="round"/>
<path d="M36.9841 33.6221L56.6268 30.6029" stroke="black" stroke-width="2.55859" stroke-miterlimit="10" stroke-linecap="round" stroke-linejoin="round"/>
<path d="M37.9336 39.7991L57.5762 36.7799" stroke="black" stroke-width="2.55859" stroke-miterlimit="10" stroke-linecap="round" stroke-linejoin="round"/>
<path d="M40.0366 53.4807L59.6792 50.4615" stroke="black" stroke-width="2.55859" stroke-miterlimit="10" stroke-linecap="round" stroke-linejoin="round"/>
<path d="M40.9858 59.6577L50.8071 58.1481" stroke="black" stroke-width="2.55859" stroke-miterlimit="10" stroke-linecap="round" stroke-linejoin="round"/>
<path d="M71.936 27.4256L70.1999 16.1307C69.9404 14.4424 68.3614 13.2844 66.6733 13.5439L51.1573 15.9288" stroke="black" stroke-width="2.55859" stroke-miterlimit="10" stroke-linecap="round" stroke-linejoin="round"/>
<path d="M20.3904 20.6579L4.87416 23.0429C3.18624 23.3024 2.02799 24.8813 2.28747 26.5694L13.8087 101.524C14.0682 103.212 15.6472 104.37 17.3351 104.111L79.1346 94.6118C80.8227 94.3523 81.9809 92.7735 81.7214 91.0852L76.2781 55.672" stroke="black" stroke-width="2.55859" stroke-miterlimit="10" stroke-linecap="round" stroke-linejoin="round"/>
<path d="M40.8062 10.7087C40.434 8.28762 38.1696 6.62674 35.7487 6.99885L32.4061 7.51266C29.985 7.8848 28.3241 10.149 28.6962 12.5701C28.885 13.7982 28.0423 14.947 26.8142 15.1358L24.1394 15.547C21.6928 15.923 20.0143 18.2112 20.3904 20.6579L20.7481 22.9852C20.9266 24.1466 22.0127 24.9431 23.174 24.7646L49.7356 20.6818C50.8971 20.5033 51.6938 19.4174 51.5153 18.2559L51.1576 15.9286C50.7815 13.482 48.4933 11.8035 46.0467 12.1796L43.3719 12.5907C42.1436 12.7795 40.995 11.9368 40.8062 10.7087Z" stroke="black" stroke-width="2.55859" stroke-miterlimit="10" stroke-linecap="round" stroke-linejoin="round"/>
<path d="M8.43451 22.4957L19.4338 94.0542C19.6049 95.1678 20.6464 95.9316 21.76 95.7604L42.4528 92.5798" stroke="black" stroke-width="2.55859" stroke-miterlimit="10" stroke-linecap="round" stroke-linejoin="round"/>
<path d="M66.5913 36.7186L63.1132 14.0909" stroke="black" stroke-width="2.55859" stroke-miterlimit="10" stroke-linecap="round" stroke-linejoin="round"/>
<path d="M54.1396 90.7408L48.376 91.6694L72.4061 87.9757C73.5197 87.8045 74.2837 86.7631 74.1126 85.6496L70.9275 64.9283" stroke="black" stroke-width="2.55859" stroke-miterlimit="10" stroke-linecap="round" stroke-linejoin="round"/>
<path d="M71.4095 37.5856L45.9233 81.7772L42.4578 92.6133C42.1764 93.4937 42.5466 94.4512 43.3472 94.913C44.1477 95.3746 45.1619 95.2157 45.7829 94.5312L53.4268 86.1045L78.9129 41.9131" stroke="black" stroke-width="2.55859" stroke-miterlimit="10" stroke-linecap="round" stroke-linejoin="round"/>
<path d="M53.5036 86.0678L45.9586 81.7163" stroke="black" stroke-width="2.55859" stroke-miterlimit="10" stroke-linecap="round" stroke-linejoin="round"/>
<path d="M81.4344 28.8727C79.3624 27.6776 76.714 28.3886 75.5189 30.4607L71.4099 37.5856L78.9133 41.913L83.0224 34.7881C84.2173 32.7161 83.5064 30.0677 81.4344 28.8727Z" stroke="black" stroke-width="2.55859" stroke-miterlimit="10" stroke-linecap="round" stroke-linejoin="round"/>
</svg>
