<svg width="104" height="84" viewBox="0 0 104 84" fill="none" xmlns="http://www.w3.org/2000/svg">
<path d="M81.1724 42.621C90.6471 43.4504 98.4587 46.1613 98.4587 46.1613C98.4587 46.1613 93.054 55.9317 84.6081 63.6627" stroke="black" stroke-width="2.5" stroke-miterlimit="10" stroke-linecap="round" stroke-linejoin="round"/>
<path d="M64.9927 27.8033C74.5747 23.0802 84.0113 21.2704 84.0113 21.2704C84.0113 21.2704 84.4442 44.7894 73.8251 57.8822C73.5672 58.2015 73.3035 58.5087 73.0375 58.8058" stroke="black" stroke-width="2.5" stroke-miterlimit="10" stroke-linecap="round" stroke-linejoin="round"/>
<path d="M14.1649 52.4482C8.53724 42.4767 6.43375 31.5109 6.43375 31.5109C6.43375 31.5109 14.701 31.3598 23.9649 33.5136" stroke="black" stroke-width="2.5" stroke-miterlimit="10" stroke-linecap="round" stroke-linejoin="round"/>
<path d="M23.9485 38.2607C23.4369 25.1833 27.8971 12.3372 27.8971 12.3372C27.8971 12.3372 36.3043 16.9869 43.9464 24.4518" stroke="black" stroke-width="2.5" stroke-miterlimit="10" stroke-linecap="round" stroke-linejoin="round"/>
<path d="M24.6659 44.7752C25.0265 46.6723 25.5304 48.5278 26.2107 50.3011C26.3565 50.6851 26.5115 51.0591 26.6717 51.4245" stroke="black" stroke-width="2.5" stroke-miterlimit="10" stroke-linecap="round" stroke-linejoin="round"/>
<path d="M62.6688 20.8746C65.4596 28.0666 67.9958 37.5381 66.635 46.0854C65.5476 52.9163 61.9253 57.4583 58.1762 60.4118" stroke="black" stroke-width="2.5" stroke-miterlimit="10" stroke-linecap="round" stroke-linejoin="round"/>
<path d="M40.2998 57.566C37.6532 53.5942 35.6204 48.152 36.7079 41.3211C39.3583 24.6726 57.1506 9.2861 57.1506 9.2861C57.1506 9.2861 58.4299 11.4112 60.0677 14.8502" stroke="black" stroke-width="2.5" stroke-miterlimit="10" stroke-linecap="round" stroke-linejoin="round"/>
<path d="M72.8502 79.6495C84.2628 79.9475 94.2314 72.7268 94.2314 72.7268C94.2314 72.7268 85.5683 60.7989 72.8621 58.7761C60.1559 56.7533 48.2171 65.4013 48.2171 65.4013C48.2171 65.4013 55.4507 75.3605 66.3916 78.6212" stroke="black" stroke-width="2.5" stroke-miterlimit="10" stroke-linecap="round" stroke-linejoin="round"/>
<path d="M2.20276 58.0754C2.20276 58.0754 10.8655 70.003 23.5721 72.0259C36.2787 74.0488 48.217 65.4009 48.217 65.4009C48.217 65.4009 39.5543 53.4733 26.8477 51.4504C14.1411 49.4275 2.20276 58.0754 2.20276 58.0754Z" stroke="black" stroke-width="2.5" stroke-miterlimit="10" stroke-linecap="round" stroke-linejoin="round"/>
<path d="M45.2875 8.57011C45.4612 10.2349 44.2525 11.7251 42.5877 11.8986C40.9231 12.0722 39.4327 10.8636 39.2592 9.19897C39.0856 7.53417 40.2944 6.04405 41.959 5.87029C43.6236 5.69672 45.1139 6.9055 45.2875 8.57011Z" stroke="black" stroke-width="2.5" stroke-miterlimit="10" stroke-linecap="round" stroke-linejoin="round"/>
<path d="M17.167 17.659C18.1497 19.0139 17.848 20.9089 16.4932 21.8914C15.1383 22.8741 13.2433 22.5724 12.2608 21.2176C11.278 19.863 11.5797 17.9679 12.9346 16.9852C14.2892 16.0025 16.1842 16.3042 17.167 17.659Z" stroke="black" stroke-width="2.5" stroke-miterlimit="10" stroke-linecap="round" stroke-linejoin="round"/>
<path d="M68.6499 12.2894C67.9678 13.818 68.6541 15.6098 70.1827 16.2918C71.7111 16.9737 73.5031 16.2876 74.185 14.7592C74.8669 13.2306 74.1806 11.4388 72.6522 10.7567C71.1238 10.0748 69.3318 10.761 68.6499 12.2894Z" stroke="black" stroke-width="2.5" stroke-miterlimit="10" stroke-linecap="round" stroke-linejoin="round"/>
<path d="M92.5576 29.6613C91.2028 30.644 90.9011 32.539 91.8838 33.8936C92.8665 35.2485 94.7615 35.5502 96.1162 34.5674C97.471 33.5849 97.7727 31.6899 96.79 30.3351C95.8075 28.9802 93.9125 28.6785 92.5576 29.6613Z" stroke="black" stroke-width="2.5" stroke-miterlimit="10" stroke-linecap="round" stroke-linejoin="round"/>
<path d="M48.2173 65.4009C48.2173 65.4009 53.4981 61.6368 56.3638 55.1904" stroke="black" stroke-width="2.5" stroke-miterlimit="10" stroke-linecap="round" stroke-linejoin="round"/>
<path d="M43.6441 53.1654C44.3663 60.183 48.2172 65.401 48.2172 65.401" stroke="black" stroke-width="2.5" stroke-miterlimit="10" stroke-linecap="round" stroke-linejoin="round"/>
<path d="M48.2173 65.4009L50.5996 50.4369" stroke="black" stroke-width="2.5" stroke-miterlimit="10" stroke-linecap="round" stroke-linejoin="round"/>
</svg>
